<?xml version="1.0" encoding="utf-8"?>
<!-- Generator: Adobe Illustrator 22.0.1, SVG Export Plug-In . SVG Version: 6.00 Build 0)  -->
<svg version="1.1" id="Layer_1" xmlns="http://www.w3.org/2000/svg" xmlns:xlink="http://www.w3.org/1999/xlink" x="0px" y="0px"
	 viewBox="0 0 130.5 133" style="enable-background:new 0 0 130.5 133;" xml:space="preserve">
<style type="text/css">
	.st0{fill:#FFFFFF;}
</style>
<path class="st0" d="M117.9,30.1c-1.9,15.8-3.9,31.4-5.8,47.1c-0.8,6.4-1.6,12.8-2.4,19.2c-0.2,1.4-0.7,2.4-2.1,3.2
	c-13.9,7.6-27.7,15.2-41.5,22.9c-1.2,0.7-2,0.5-3-0.1c-13.4-7.4-26.7-14.9-40.2-22.2c-1.8-1-2.4-2.2-2.7-4.2
	c-0.8-7.9-1.8-15.7-2.7-23.6c-0.9-7.5-1.7-15.1-2.6-22.6c-0.7-5.8-1.3-11.6-2-17.3c-0.2-1.7,0.4-2.4,1.9-3c16-5.6,31.9-11.3,47.9-17
	c1-0.3,2.2-0.4,3.2-0.1c16.9,5.7,33.8,11.4,50.7,17.1C117.1,29.6,117.4,29.8,117.9,30.1z M99.1,97.1c-11.5-24.4-22.8-48.4-34.4-73
	C53.6,48.7,42.8,72.7,31.9,96.9c4,0,7.4,0,10.8,0c1.4,0,2.1-0.7,2.6-2c1.6-4.2,3.4-8.4,5-12.6c0.5-1.4,1.2-1.8,2.6-1.8
	c8.4,0.1,16.9,0.1,25.3,0c1.2,0,1.8,0.3,2.3,1.5c1.8,4.5,3.8,8.9,5.8,13.3c0.3,0.7,1.3,1.6,2,1.7C91.7,97.2,95.1,97.1,99.1,97.1z"/>
<path d="M99.1,97.1c-4,0-7.4,0.1-10.8-0.1c-0.7,0-1.6-0.9-2-1.7c-2-4.4-4-8.8-5.8-13.3c-0.5-1.2-1.1-1.5-2.3-1.5
	c-8.4,0-16.9,0.1-25.3,0c-1.4,0-2.1,0.4-2.6,1.8c-1.6,4.2-3.4,8.4-5,12.6c-0.5,1.3-1.2,2-2.6,2c-3.4,0-6.8,0-10.8,0
	c10.9-24.2,21.7-48.2,32.8-72.8C76.3,48.7,87.6,72.7,99.1,97.1z M55.5,70.4c6.7,0,13.1,0,19.8,0c-3.6-7.4-7-14.6-10.6-22
	C61.6,55.8,58.6,63,55.5,70.4z"/>
<path class="st0" d="M55.5,70.4c3.1-7.4,6.1-14.5,9.3-22c3.6,7.4,7,14.6,10.6,22C68.6,70.4,62.2,70.4,55.5,70.4z"/>
</svg>
