<?xml version="1.0" encoding="utf-8"?>
<!-- Generator: Adobe Illustrator 22.0.1, SVG Export Plug-In . SVG Version: 6.00 Build 0)  -->
<svg version="1.1" id="Layer_1" xmlns="http://www.w3.org/2000/svg" xmlns:xlink="http://www.w3.org/1999/xlink" x="0px" y="0px"
	 viewBox="0 0 130.5 133" style="enable-background:new 0 0 130.5 133;" xml:space="preserve">
<style type="text/css">
	.st0{fill:#FFFFFF;}
</style>
<path class="st0" d="M58.4,19c3.9,0,7.9,0,11.8,0c0.4,0.1,0.9,0.3,1.3,0.4c27.1,4,45.7,30,40.7,56.9c-5.1,27.4-31.8,44.7-59,38.8
	c-18.2-4-38.7-22.5-37.5-49.4c0.9-21.9,16.6-41,37.9-45.7C55.2,19.6,56.8,19.3,58.4,19z M35.1,69.1c1,0,1.7,0,2.4,0
	c7.6,0,15.1,0,22.7,0c1.7,0,2.3-0.6,2-2.2c-0.3-1.8-0.4-3.5-0.8-5.3C59.7,54,54,48.8,47,48.5c-8.4-0.4-14.9,4.1-17.5,11.9
	c-1.7,5.1-1.3,10.1,0.3,15.1c4.3,13.5,22,13.4,28.3,6.2c1.8-2,2.9-4.3,3.4-7.2c-1.7,0-3.2-0.1-4.7,0.1c-0.6,0.1-1.2,0.6-1.7,1.1
	c-1.1,1.2-1.9,3-3.3,3.8c-3.9,2.4-8.1,2.2-12-0.1C36.1,77.3,35,73.6,35.1,69.1z M81.6,61.7c-2.8-4.1-5.4-8-8.1-11.8
	c-0.4-0.5-0.9-1.2-1.4-1.3c-2.4-0.1-4.9-0.1-7.7-0.1c0.7,1,1,1.5,1.4,2c3.5,4.7,6.9,9.5,10.4,14.1c1.2,1.5,1,2.4,0,3.9
	c-3.9,5.3-7.7,10.7-11.5,16c-0.4,0.6-0.7,1.1-1.2,1.8c7.1,0.8,7.1,0.8,10.8-4.7c0.7-1,1.3-2,2-2.9c1.7-2.5,3.4-5.1,5.2-7.8
	c3.3,4.9,6.4,9.5,9.5,14.1c0.4,0.6,1,1.3,1.5,1.3c2.4,0.1,4.8,0.1,7.7,0.1c-5.1-7.1-9.9-13.8-14.7-20.5c4.3-5.8,8.6-11.5,13.1-17.5
	c-2.4,0-4.2,0.1-6,0c-1.3-0.1-2,0.4-2.8,1.4C87.2,53.8,84.4,57.6,81.6,61.7z"/>
<path d="M35.1,69.1c-0.1,4.5,1,8.2,4.9,10.4c3.9,2.3,8.1,2.4,12,0.1c1.4-0.8,2.1-2.5,3.3-3.8c0.5-0.5,1.1-1.1,1.7-1.1
	c1.5-0.2,3-0.1,4.7-0.1c-0.5,2.9-1.6,5.2-3.4,7.2c-6.4,7.2-24,7.3-28.3-6.2c-1.6-5-2-10-0.3-15.1c2.6-7.9,9.1-12.3,17.5-11.9
	c7,0.3,12.7,5.5,14.4,13.2c0.4,1.7,0.5,3.5,0.8,5.3c0.3,1.6-0.3,2.2-2,2.2c-7.6-0.1-15.1,0-22.7,0C36.8,69.1,36.1,69.1,35.1,69.1z
	 M35.3,63.9c6.8,0,13.5,0,20.1,0c0.1-5.4-4.4-9.8-9.9-9.9C39.8,53.9,35.3,58.1,35.3,63.9z"/>
<path d="M81.6,61.7c2.9-4.1,5.7-7.9,8.4-11.8c0.7-1,1.5-1.5,2.8-1.4c1.8,0.1,3.6,0,6,0c-4.5,6-8.7,11.7-13.1,17.5
	c4.8,6.7,9.6,13.4,14.7,20.5c-2.9,0-5.3,0.1-7.7-0.1c-0.5,0-1.1-0.8-1.5-1.3c-3.1-4.6-6.3-9.2-9.5-14.1c-1.8,2.7-3.5,5.2-5.2,7.8
	c-0.7,1-1.3,2-2,2.9c-3.7,5.5-3.7,5.5-10.8,4.7c0.4-0.7,0.8-1.3,1.2-1.8c3.8-5.4,7.6-10.7,11.5-16c1.1-1.4,1.2-2.4,0-3.9
	c-3.6-4.6-7-9.4-10.4-14.1c-0.4-0.5-0.7-1.1-1.4-2c2.8,0,5.3-0.1,7.7,0.1c0.5,0,1,0.8,1.4,1.3C76.1,53.7,78.7,57.6,81.6,61.7z"/>
<path class="st0" d="M35.3,63.9c0-5.7,4.5-9.9,10.2-9.9c5.6,0.1,10,4.5,9.9,9.9C48.7,63.9,42.1,63.9,35.3,63.9z"/>
</svg>
