<?xml version="1.0" encoding="utf-8"?>
<!-- Generator: Adobe Illustrator 22.0.1, SVG Export Plug-In . SVG Version: 6.00 Build 0)  -->
<svg version="1.1" id="Layer_1" xmlns="http://www.w3.org/2000/svg" xmlns:xlink="http://www.w3.org/1999/xlink" x="0px" y="0px"
	 viewBox="0 0 130.5 133" style="enable-background:new 0 0 130.5 133;" xml:space="preserve">
<style type="text/css">
	.st0{fill:#F2F2F3;}
	.st1{fill:#CCCCCB;}
	.st2{fill:#B3B4B4;}
	.st3{fill:#E6E6E6;}
</style>
<path class="st0" d="M94.3,34.5c5.9,5.1,10.1,11.4,12.8,18.7c0.6,1.7,1.8,3.4,3.2,4.6c9.5,8.7,13.5,19.4,10.4,32
	c-3,12.5-11.3,20.2-23.7,23.5c-1.1,0.3-2.2,0.2-3.3,0.4c-7.5,0-15.1,0-22.6-0.1c-5.1,0-5,0-5.1-5c-0.1-4.2-0.4-8.5-0.6-12.7
	c-0.2-0.4-0.4-0.8-0.6-1.1c8.1,0,16.1,0.1,24.2-0.1c2.2,0,4.5-0.5,6.5-1.4c4.6-2.1,7.2-7.1,6.7-12c-0.6-5.2-3.9-9.3-9.1-10.7
	c-1.8-0.5-3.1-0.9-3.1-3.3c-0.1-7.9-3.6-14.3-9.8-19.2c0.6-0.3,1.4-0.5,1.8-1C86.1,42.9,90.2,38.7,94.3,34.5z"/>
<path class="st1" d="M21.8,107.7c-11.1-7.3-15.9-24-10.7-36.8c2.6-6.4,7-11.1,12-15.5c7.8-3.8,15.8-6.1,24.6-4.3
	c6.6,1.6,12.3,4.8,16.8,9.9c0.6,0.7,1.1,2.6,0.6,3c-4.1,4.4-8.4,8.5-12.8,12.9c-1-1.1-1.7-1.9-2.4-2.7c-6.1-6.9-17.2-4.8-20.4,3.8
	c-2.3,6.2,0.1,11.6,7.2,15.8C31.7,98.6,26.8,103.1,21.8,107.7z"/>
<path class="st2" d="M47.7,51.1c-8.8-1.8-16.8,0.4-24.6,4.3c9-31.2,47.4-42.1,71.2-20.9c-4.1,4.2-8.2,8.4-12.3,12.5
	c-0.5,0.5-1.2,0.7-1.8,1c-3.5-1.5-6.9-3.7-10.6-4.4C61.1,42.1,53.5,44.3,47.7,51.1z"/>
<path class="st3" d="M21.8,107.7c5-4.6,9.9-9.1,14.9-13.7c2.2,0.2,4.4,0.6,6.7,0.6c7.1,0.1,14.3,0.1,21.4,0.1
	c0.2,0.4,0.4,0.8,0.6,1.1c0,6.1,0,12.2,0,18.3c-10-0.1-20.1,0-30.1-0.6C30.3,113.3,25.7,111,21.8,107.7z"/>
<path class="st3" d="M65.4,114.2c0-6.1,0-12.2,0-18.3c0.2,4.2,0.5,8.5,0.6,12.7c0.1,5,0,5,5.1,5c7.5,0,15.1,0,22.6,0.1
	c-1.2,0.2-2.4,0.5-3.6,0.5C81.9,114.3,73.6,114.2,65.4,114.2z"/>
</svg>
