<?xml version="1.0" encoding="utf-8"?>
<!-- Generator: Adobe Illustrator 22.0.1, SVG Export Plug-In . SVG Version: 6.00 Build 0)  -->
<svg version="1.1" id="Layer_1" xmlns="http://www.w3.org/2000/svg" xmlns:xlink="http://www.w3.org/1999/xlink" x="0px" y="0px"
	 viewBox="0 0 130.5 133" style="enable-background:new 0 0 130.5 133;" xml:space="preserve">
<style type="text/css">
	.st0{fill:#FFFFFF;}
</style>
<g>
	<path class="st0" d="M68.5,49.2c4.2-0.4,10.8-0.8,17.3-1.8c6.5-1,13-2.6,18.6-6.4c5.5-3.7,5.8-8.9,0.5-12.9c-2.7-2-5.8-3.7-9-4.8
		c-11.9-4.2-24.3-4.9-36.8-4.2c-9,0.5-17.9,1.7-26.1,5.7c-2.8,1.3-5.4,3.4-7.5,5.6c-2.7,3-2.3,6.6,0.9,9c2.6,2,5.6,3.6,8.7,4.8
		C45.1,48.1,55.5,48.8,68.5,49.2z M108.5,84.6c-15,12.7-66.3,14.2-84.6,0.2c0,3.5,0.3,6.9-0.1,10.1c-0.8,6.7,2.6,10.4,8.1,13
		c1.6,0.8,3.2,1.5,4.9,2c16.4,5.2,33.1,5.4,49.9,2.4c6.2-1.1,12.2-2.8,17.4-6.6c2.3-1.6,4.3-3.7,4.4-6.6
		C108.7,94.5,108.5,89.8,108.5,84.6z M23.9,42.5c0,4.1,0.2,8.1,0,12c-0.2,3.4,1.2,6,4,7.5c3.3,1.8,6.7,3.6,10.3,4.6
		c16.1,4.5,32.3,4.7,48.7,1.8c6.2-1.1,12.3-2.6,17.5-6.3c1.7-1.2,3.8-3.2,4-5c0.6-4.8,0.2-9.7,0.2-14.8C93.3,55.1,42,56.4,23.9,42.5
		z M23.9,63.4c0,4.4,0.2,8.4,0,12.3C23.7,79,25,81.5,27.7,83c3.3,1.8,6.7,3.6,10.3,4.7c13.4,3.9,27.1,4.5,40.9,3.1
		c7.7-0.8,15.3-2.2,22.4-5.5c5-2.3,8.1-5.6,7.4-11.7c-0.4-3.2-0.1-6.5-0.1-10.2C92.4,76.8,40.9,77.1,23.9,63.4z"/>
	<path class="st0" d="M68.5,49.2c-12.9-0.4-23.4-1.1-33.3-4.8c-3.1-1.2-6.1-2.8-8.7-4.8c-3.2-2.4-3.6-6-0.9-9c2-2.3,4.7-4.3,7.5-5.6
		c8.2-4,17.2-5.2,26.1-5.7c12.5-0.7,24.9,0,36.8,4.2c3.2,1.1,6.3,2.8,9,4.8c5.3,4,5,9.2-0.5,12.9c-5.6,3.8-12.1,5.4-18.6,6.4
		C79.2,48.4,72.6,48.8,68.5,49.2z"/>
	<path class="st0" d="M108.5,84.6c0,5.2,0.2,9.9-0.1,14.7c-0.1,2.9-2.1,4.9-4.4,6.6c-5.2,3.8-11.2,5.4-17.4,6.6
		c-16.8,3-33.5,2.8-49.9-2.4c-1.7-0.5-3.3-1.3-4.9-2c-5.5-2.6-8.9-6.4-8.1-13c0.4-3.3,0.1-6.6,0.1-10.1
		C42.2,98.8,93.6,97.3,108.5,84.6z"/>
	<path class="st0" d="M23.9,42.5c18.1,13.9,69.4,12.6,84.6-0.1c0,5.1,0.4,10-0.2,14.8c-0.2,1.8-2.3,3.7-4,5
		c-5.2,3.7-11.3,5.2-17.5,6.3c-16.4,2.9-32.6,2.7-48.7-1.8c-3.6-1-7-2.8-10.3-4.6c-2.8-1.5-4.1-4.1-4-7.5
		C24.1,50.5,23.9,46.6,23.9,42.5z"/>
	<path class="st0" d="M23.9,63.4c17,13.7,68.5,13.3,84.7-0.1c0,3.6-0.3,7,0.1,10.2c0.7,6.1-2.4,9.3-7.4,11.7
		c-7.1,3.3-14.7,4.8-22.4,5.5c-13.8,1.4-27.5,0.9-40.9-3.1c-3.6-1.1-7-2.9-10.3-4.7c-2.7-1.5-4-4-3.8-7.3
		C24.1,71.8,23.9,67.8,23.9,63.4z"/>
</g>
</svg>
