<?xml version="1.0" encoding="utf-8"?>
<!-- Generator: Adobe Illustrator 22.0.1, SVG Export Plug-In . SVG Version: 6.00 Build 0)  -->
<svg version="1.1" id="Layer_1" xmlns="http://www.w3.org/2000/svg" xmlns:xlink="http://www.w3.org/1999/xlink" x="0px" y="0px"
	 viewBox="0 0 130.5 133" style="enable-background:new 0 0 130.5 133;" xml:space="preserve">
<style type="text/css">
	.st0{fill:#FFFFFF;}
</style>
<path class="st0" d="M65.1,126.4c-12.3,0-24.6,0.2-36.9-0.1c-8.2-0.1-14.7-3.9-19.3-10.8c-2.6-3.9-3.8-8.3-3.8-13
	c0-10.4,0-20.9,0-31.3c0-7-0.1-14-0.1-21c0-7.2,0-14.3,0.2-21.5C5.5,18.6,13.5,9.1,23.5,7.1c1.9-0.4,4-0.6,5.9-0.6c24,0,48,0,72,0
	c11.8,0,22,8.4,23.8,20.8c0.1,0.9,0.1,1.7,0.1,2.6c0.1,5.2,0.2,10.4,0.2,15.6c0,6.3-0.1,12.6-0.1,18.8c0,5.8,0,11.6,0,17.4
	c0,7.5,0.2,15-0.1,22.5c-0.3,7.8-4.1,13.9-10.5,18.3c-3.9,2.7-8.4,3.9-13.1,4C89.4,126.5,77.3,126.4,65.1,126.4z M71,43.4
	c-2.4,0-4.7,0.1-6.9,0c-1,0-1.5,0.3-1.9,1.2c-3.3,8.2-6.7,16.5-10.1,24.7c-1.3,3.1-2.5,6.2-3.9,9.5c-0.3-0.7-0.5-1-0.7-1.4
	c-4.5-11-8.9-22-13.4-33c-0.2-0.4-0.7-1.1-1.1-1.1c-2.6-0.1-5.2,0-7.9,0c0,0.5-0.1,0.8-0.1,1.2c0,8.4,0,16.8,0,25.2
	c0,5.7,0,11.5,0,17.2c0,0.5,0.4,1.3,0.7,1.4c2,0.1,4.1,0.1,6.3,0.1c0-10.9,0-21.7,0-32.4c0.4,0.2,0.5,0.5,0.6,0.8
	c3.8,9.3,7.6,18.7,11.4,28c1.5,3.7,1.5,3.6,5.5,3.7c1.2,0,1.8-0.3,2.2-1.5c3.7-9.5,7.5-18.9,11.3-28.4c0.3-0.8,0.7-1.6,1-2.4
	c0.1,0,0.2,0.1,0.3,0.1c0,10.7,0,21.4,0,32.1c2.3,0,4.4,0,6.6,0C71,73.4,71,58.5,71,43.4z M78.6,43.5c0,15,0,30,0,44.9
	c9.5,0,18.9,0,28.3,0c0-2,0-3.9,0-6c-6.9,0-13.7,0-20.6,0c0-13.1,0-26,0-38.9C83.6,43.5,81.1,43.5,78.6,43.5z M72.6,113.1
	c-0.8-0.6-1.3-1.3-1.7-1.2c-0.5,0.1-0.9,0.8-1.4,1.3c0.5,0.4,0.9,1.1,1.4,1.2C71.4,114.4,71.9,113.7,72.6,113.1z M64.5,38
	c-0.9-0.6-1.4-1.3-1.9-1.3c-0.4,0-1.3,0.9-1.2,1.2c0.1,0.6,0.7,1.2,1.3,1.4C63.1,39.3,63.7,38.6,64.5,38z M26.8,28.6
	c-0.9-0.6-1.5-1.2-2-1.1c-0.4,0-0.8,0.8-1.2,1.2c0.5,0.4,0.9,1.1,1.4,1.3C25.4,30,25.9,29.3,26.8,28.6z M70.5,29.2
	c0.6-0.9,1.3-1.5,1.2-2c0-0.4-0.8-0.8-1.2-1.3c-0.4,0.5-1.1,0.9-1.2,1.4C69.2,27.8,69.9,28.3,70.5,29.2z M78.6,16.5
	c0.6-0.8,1.3-1.3,1.3-1.8c-0.1-0.5-0.7-1-1.1-1.4c-0.5,0.4-1.3,0.8-1.3,1.2C77.4,15,78,15.5,78.6,16.5z M86.1,103.9
	c-0.6,0.8-1.2,1.4-1.2,1.8c0.1,0.5,0.8,0.9,1.2,1.4c0.4-0.5,1.1-0.9,1.1-1.4C87.4,105.2,86.7,104.7,86.1,103.9z M31,108.9
	c0.6-0.9,1.2-1.4,1.1-1.9c0-0.4-0.9-1.2-1.2-1.1c-0.5,0.1-1.2,0.8-1.3,1.3C29.6,107.6,30.4,108.1,31,108.9z M106.1,14.6
	c-0.9-0.6-1.4-1.3-1.8-1.3c-0.5,0.1-0.9,0.8-1.4,1.3c0.4,0.4,0.9,1.1,1.3,1.2C104.7,15.8,105.2,15.2,106.1,14.6z M104.7,35.4
	c-0.6,0.9-1.3,1.4-1.3,1.8c0.1,0.5,0.8,1,1.2,1.4c0.4-0.4,1.1-0.8,1.2-1.3C105.9,36.8,105.3,36.3,104.7,35.4z M34.4,20.3
	c-0.8-0.5-1.4-1.2-1.8-1.1c-0.5,0.2-1.1,0.8-1.2,1.4c0,0.4,0.8,1.2,1.2,1.2C33.1,21.7,33.6,21,34.4,20.3z M87.6,113.4
	c0-0.2,0-0.4,0-0.6c-0.5-0.3-1-1-1.5-0.9c-0.4,0-1.1,0.8-1.1,1.2c0,0.4,0.7,1.2,1.1,1.2C86.5,114.4,87.1,113.8,87.6,113.4z
	 M115,82.7c0-0.2,0-0.4,0-0.6c-0.5-0.3-1.1-0.8-1.6-0.8c-0.5,0.1-0.8,0.8-1.2,1.2c0.5,0.4,0.9,1,1.5,1.1C114,83.7,114.5,83,115,82.7
	z M96.2,43.7c-0.7,0.8-1.4,1.3-1.3,1.7c0.1,0.5,0.7,1.2,1.3,1.3c0.4,0.1,1.2-0.7,1.2-1.1C97.4,45.1,96.8,44.6,96.2,43.7z
	 M52.7,119.3c-0.9-0.5-1.4-1.2-1.8-1.1c-0.5,0.1-0.9,0.8-1.3,1.3c0.5,0.4,0.9,1,1.5,1.1C51.4,120.6,51.9,119.9,52.7,119.3z M66,98.8
	c0-0.2,0-0.4,0-0.6c-0.5-0.3-1.1-0.9-1.6-0.9c-0.4,0-1.2,0.7-1.2,1.2c0,0.4,0.7,1.2,1.1,1.2C64.9,99.7,65.5,99.1,66,98.8z
	 M25.5,97.9c-0.6,0.9-1.2,1.4-1.1,1.8c0.1,0.5,0.8,0.9,1.2,1.4c0.4-0.5,1-0.9,1.1-1.5C26.8,99.3,26.1,98.8,25.5,97.9z M47.7,112.7
	c-0.9-0.6-1.5-1.2-1.9-1.2c-0.4,0-1.1,0.8-1.1,1.2c0,0.5,0.7,1.3,1.1,1.3C46.3,114,46.8,113.4,47.7,112.7z"/>
<path d="M71,43.4c0,15.1,0,30,0,45c-2.2,0-4.3,0-6.6,0c0-10.7,0-21.4,0-32.1c-0.1,0-0.2-0.1-0.3-0.1c-0.3,0.8-0.7,1.6-1,2.4
	c-3.8,9.4-7.6,18.9-11.3,28.4c-0.5,1.2-1,1.5-2.2,1.5c-3.9-0.1-4,0-5.5-3.7c-3.8-9.3-7.6-18.7-11.4-28c-0.1-0.3-0.2-0.5-0.6-0.8
	c0,10.8,0,21.5,0,32.4c-2.2,0-4.3,0.1-6.3-0.1c-0.3,0-0.7-0.9-0.7-1.4c0-5.7,0-11.5,0-17.2c0-8.4,0-16.8,0-25.2c0-0.3,0-0.7,0.1-1.2
	c2.7,0,5.3,0,7.9,0c0.4,0,0.9,0.6,1.1,1.1c4.5,11,8.9,22,13.4,33c0.1,0.4,0.4,0.7,0.7,1.4c1.4-3.4,2.7-6.4,3.9-9.5
	c3.4-8.2,6.8-16.4,10.1-24.7c0.4-1,0.9-1.3,1.9-1.2C66.3,43.5,68.6,43.4,71,43.4z"/>
<path d="M78.6,43.5c2.5,0,5,0,7.7,0c0,12.9,0,25.8,0,38.9c6.9,0,13.7,0,20.6,0c0,2.1,0,4,0,6c-9.4,0-18.8,0-28.3,0
	C78.6,73.5,78.6,58.5,78.6,43.5z"/>
<path class="st0" d="M72.6,113.1c-0.7,0.6-1.3,1.3-1.7,1.2c-0.5-0.1-1-0.8-1.4-1.2c0.4-0.5,0.8-1.2,1.4-1.3
	C71.3,111.8,71.9,112.5,72.6,113.1z"/>
<path class="st0" d="M64.5,38c-0.9,0.6-1.5,1.3-1.8,1.2c-0.5-0.1-1.1-0.8-1.3-1.4c-0.1-0.3,0.8-1.1,1.2-1.2
	C63.1,36.7,63.7,37.4,64.5,38z"/>
<path class="st0" d="M26.8,28.6c-0.9,0.7-1.4,1.4-1.8,1.3c-0.5-0.1-1-0.8-1.4-1.3c0.4-0.4,0.8-1.2,1.2-1.2
	C25.3,27.4,25.8,28,26.8,28.6z"/>
<path class="st0" d="M70.5,29.2c-0.6-0.9-1.3-1.4-1.2-1.8c0.1-0.5,0.8-1,1.2-1.4c0.4,0.4,1.2,0.8,1.2,1.3
	C71.8,27.7,71.1,28.3,70.5,29.2z"/>
<path class="st0" d="M78.6,16.5c-0.6-0.9-1.2-1.5-1.2-2c0-0.4,0.8-0.8,1.3-1.2c0.4,0.5,1.1,0.9,1.1,1.4
	C79.9,15.1,79.3,15.6,78.6,16.5z"/>
<path class="st0" d="M86.1,103.9c0.6,0.8,1.3,1.3,1.2,1.7c-0.1,0.5-0.7,0.9-1.1,1.4c-0.4-0.5-1.1-0.9-1.2-1.4
	C84.9,105.3,85.5,104.7,86.1,103.9z"/>
<path class="st0" d="M31,108.9c-0.7-0.8-1.4-1.3-1.3-1.7c0.1-0.5,0.7-1.2,1.3-1.3c0.3-0.1,1.2,0.7,1.2,1.1
	C32.2,107.5,31.6,108.1,31,108.9z"/>
<path class="st0" d="M106.1,14.6c-0.9,0.6-1.4,1.2-1.8,1.2c-0.5-0.1-0.9-0.7-1.3-1.2c0.5-0.5,0.9-1.2,1.4-1.3
	C104.7,13.3,105.2,14,106.1,14.6z"/>
<path class="st0" d="M104.7,35.4c0.6,0.9,1.1,1.5,1.1,1.9c-0.1,0.5-0.7,0.9-1.2,1.3c-0.4-0.5-1.1-0.9-1.2-1.4
	C103.4,36.8,104.1,36.3,104.7,35.4z"/>
<path class="st0" d="M34.4,20.3c-0.8,0.7-1.3,1.4-1.8,1.4c-0.4,0-1.2-0.8-1.2-1.2c0-0.5,0.7-1.2,1.2-1.4
	C33,19.1,33.6,19.7,34.4,20.3z"/>
<path class="st0" d="M87.6,113.4c-0.5,0.3-1.1,0.9-1.5,0.9c-0.4,0-1.1-0.8-1.1-1.2c0-0.4,0.7-1.2,1.1-1.2c0.5,0,1,0.6,1.5,0.9
	C87.6,113,87.6,113.2,87.6,113.4z"/>
<path class="st0" d="M115,82.7c-0.5,0.3-1,1-1.4,0.9c-0.5-0.1-1-0.7-1.5-1.1c0.4-0.4,0.8-1.1,1.2-1.2c0.5-0.1,1.1,0.5,1.6,0.8
	C114.9,82.3,114.9,82.5,115,82.7z"/>
<path class="st0" d="M96.2,43.7c0.6,0.9,1.2,1.4,1.2,1.9c0,0.4-0.9,1.1-1.2,1.1c-0.5-0.1-1.2-0.8-1.3-1.3
	C94.8,45,95.6,44.5,96.2,43.7z"/>
<path class="st0" d="M52.7,119.3c-0.8,0.6-1.3,1.3-1.7,1.3c-0.5-0.1-1-0.7-1.5-1.1c0.4-0.4,0.8-1.1,1.3-1.3
	C51.3,118.1,51.8,118.8,52.7,119.3z"/>
<path class="st0" d="M66,98.8c-0.5,0.3-1.1,0.9-1.6,0.8c-0.4,0-1.1-0.8-1.1-1.2c0-0.4,0.7-1.1,1.2-1.2c0.5,0,1,0.6,1.6,0.9
	C66,98.4,66,98.6,66,98.8z"/>
<path class="st0" d="M25.5,97.9c0.6,0.8,1.3,1.3,1.2,1.7c-0.1,0.5-0.7,1-1.1,1.5c-0.4-0.5-1.1-0.9-1.2-1.4
	C24.3,99.4,24.9,98.8,25.5,97.9z"/>
<path class="st0" d="M47.7,112.7c-0.9,0.7-1.4,1.3-1.9,1.3c-0.4,0-1.1-0.8-1.1-1.3c0-0.4,0.7-1.2,1.1-1.2
	C46.2,111.5,46.8,112.1,47.7,112.7z"/>
</svg>
