<?xml version="1.0" encoding="utf-8"?>
<!-- Generator: Adobe Illustrator 22.0.1, SVG Export Plug-In . SVG Version: 6.00 Build 0)  -->
<svg version="1.1" id="Layer_1" xmlns="http://www.w3.org/2000/svg" xmlns:xlink="http://www.w3.org/1999/xlink" x="0px" y="0px"
	 viewBox="0 0 130.5 133" style="enable-background:new 0 0 130.5 133;" xml:space="preserve">
<style type="text/css">
	.st0{fill:#FFFFFF;}
	.st1{fill:#CCCCCB;}
	.st2{fill:#E6E6E6;}
</style>
<path class="st0" d="M43.9,102.6c-7.8,0-15.6,0-23.4,0c-2.2,0-4.3,0-6.7,0c15-25.8,30-51.4,45.1-77.3c5.1,8.7,10,17.2,15,25.8
	c0,0.1,0,0.1,0,0.2c-0.2,0.3-0.5,0.6-0.7,1c-5,8.5-10,17.1-15,25.6C53.5,86.1,48.7,94.3,43.9,102.6z"/>
<path class="st1" d="M43.9,102.6c4.8-8.2,9.6-16.5,14.4-24.7c5-8.5,10-17.1,15-25.6c0.2-0.3,0.4-0.6,0.7-1c0.1,0.1,0.2,0.3,0.3,0.4
	c4.5,7.8,9.1,15.5,13.6,23.3c4,6.8,7.9,13.5,11.9,20.3c1.4,2.4,2.9,4.7,4.1,7.2c-0.3,0-0.6,0-0.9,0c-19.3,0-38.7,0-58,0
	C44.6,102.6,44.3,102.6,43.9,102.6z"/>
<path class="st2" d="M103.8,102.6c-1.2-2.5-2.7-4.8-4.1-7.2c-3.9-6.8-7.9-13.6-11.9-20.3c-4.5-7.8-9.1-15.5-13.6-23.3
	c-0.1-0.2-0.2-0.3-0.3-0.4c0-0.1,0-0.1,0-0.2c0.4-0.1,0.5-0.5,0.6-0.8c2.1-3.6,4.2-7.2,6.3-10.8c0.4-0.6,0.5-0.9,1-0.1
	c12.2,20.9,24.5,41.8,36.7,62.7c0.1,0.1,0.1,0.2,0.2,0.5C113.8,102.6,108.8,102.6,103.8,102.6z"/>
</svg>
