<?xml version="1.0" encoding="utf-8"?>
<!-- Generator: Adobe Illustrator 22.0.1, SVG Export Plug-In . SVG Version: 6.00 Build 0)  -->
<svg version="1.1" id="Layer_1" xmlns="http://www.w3.org/2000/svg" xmlns:xlink="http://www.w3.org/1999/xlink" x="0px" y="0px"
	 viewBox="0 0 130.5 133" style="enable-background:new 0 0 130.5 133;" xml:space="preserve">
<style type="text/css">
	.st0{fill:#FFFFFF;}
	.st1{fill:#E6E6E6;}
</style>
<path class="st0" d="M28.6,94.7c-7.5-9.1-10.4-19.7-9.6-31.2c1.3-20.8,16-37.8,36.4-42.2c13.5-2.9,26.1-0.5,37.3,8
	c-5.4-1.5-11-2.6-15.9,0.6c-4.4,2.9-7.9,7-11.9,10.6C56.3,49,47.7,57.6,39.2,66.2c-3.5,3.8-7.6,7.2-10.4,11.5
	C25.4,83,26.5,89,28.6,94.7z"/>
<path class="st1" d="M64.8,40.5c3.9-3.6,7.5-7.7,11.9-10.6c4.8-3.2,10.5-2.1,15.9-0.6c11.7,7.9,17.5,19.3,18.9,33
	c1.1,11.8-1.9,22.6-9.2,32c0.1-1,0.1-2.1,0.3-3.1c1.1-6.5,0.9-12.7-3.9-17.8c-2.4-2.6-5-4.9-7.5-7.3C83.1,58,74.9,49.8,66.8,41.6
	C66.3,41.1,65.5,40.8,64.8,40.5z"/>
<path class="st0" d="M91.2,66.2c2.5,2.4,5.1,4.7,7.5,7.3c4.7,5.1,5,11.3,3.9,17.8c-0.2,1-0.2,2.1-0.3,3.1
	c-14.2,20.8-47.9,24.9-66.3,8c5.2,2,10.3,3.6,15.9,1.4c6-2.2,9.7-6.9,13.7-11.4c0.5-0.4,1.1-0.7,1.6-1.2c7.7-7.7,15.4-15.4,23-23.1
	C90.5,67.6,90.8,66.8,91.2,66.2z"/>
<path class="st1" d="M65.5,92.4c-4,4.5-7.7,9.2-13.7,11.4c-5.7,2.1-10.8,0.6-15.9-1.4c-2.4-2.6-4.9-5.1-7.3-7.7
	c-2-5.7-3.2-11.7,0.2-17c2.8-4.3,6.9-7.7,10.4-11.5c0.5,0.8,1,1.7,1.6,2.4c7.3,7.4,14.6,14.7,22,22C63.6,91.3,64.6,91.8,65.5,92.4z"
	/>
</svg>
