<?xml version="1.0" encoding="utf-8"?>
<!-- Generator: Adobe Illustrator 22.0.1, SVG Export Plug-In . SVG Version: 6.00 Build 0)  -->
<svg version="1.1" id="Layer_1" xmlns="http://www.w3.org/2000/svg" xmlns:xlink="http://www.w3.org/1999/xlink" x="0px" y="0px"
	 viewBox="0 0 130.5 133" style="enable-background:new 0 0 130.5 133;" xml:space="preserve">
<style type="text/css">
	.st0{fill:#FFFFFF;}
</style>
<path class="st0" d="M70.9,70.5c-4.6,0-8.7,0-13.1,0c0,1.7,0,3.3,0,5.2c3.5-0.5,3.7,1.6,3.7,4.4c-0.1,8.5-0.1,16.9,0,25.4
	c0,2.1-0.6,2.9-2.8,3.2c-7.7,0.9-14.9,3.3-21.4,7.4c-1.8,1.2-2.9,0.3-4.2-0.7C15.4,101.3,8,82.9,12.8,60.7c4.8-22,19.1-36,41.1-41.1
	c24.6-5.7,49.6,7.1,60.2,29.9c10.5,22.6,4,49.5-15.5,65c-2.4,1.9-4.1,2.3-7.2,0.8c-5.4-2.7-11.3-4.5-17.2-6.1
	c-2.6-0.7-3.4-1.6-3.3-4.2c0.1-10.3,0.1-20.5,0.1-30.8C70.9,73.1,70.9,71.9,70.9,70.5z M58.7,104.8c-0.1-2.2-0.1-2.2-3-3.1
	c-15.3-5.1-24.3-20.8-20.9-36.1c3.5-15.8,18.4-26.2,34.6-24.1c15.6,2,27.3,15.9,26.9,31.9c-0.4,12.3-8.4,23.3-20.5,28
	c-1.4,0.5-3,0.8-1.9,2.9c15.5-3.6,26.6-19.6,24.6-35.4C96.3,51,82.1,38.4,64.7,38.7C47.2,39,33.2,52.4,31.9,70
	C30.6,86.5,42.3,101.8,58.7,104.8z M58.6,88.2c0.3-0.2,0.5-0.5,0.8-0.7c-0.9-0.9-1.6-2-2.6-2.7c-6.1-4.4-8.3-11.8-5.4-18.5
	c2.9-6.6,10.1-10.4,17.2-8.8c5.9,1.3,9.8,5,11.4,10.8c1.7,5.8,0,10.8-4.2,15.1c-1,1-1.6,2.2-2.4,3.4c0.3,0.2,0.5,0.4,0.8,0.5
	c7-3.8,10.3-11.9,8.1-19.8c-2.2-7.9-9.7-13.2-18-12.6c-8.4,0.6-14.8,6.5-16.1,14.9C46.7,77.6,51.1,85.3,58.6,88.2z"/>
</svg>
