<?xml version="1.0" encoding="utf-8"?>
<!-- Generator: Adobe Illustrator 22.0.1, SVG Export Plug-In . SVG Version: 6.00 Build 0)  -->
<svg version="1.1" id="Layer_1" xmlns="http://www.w3.org/2000/svg" xmlns:xlink="http://www.w3.org/1999/xlink" x="0px" y="0px"
	 viewBox="0 0 130.5 133" style="enable-background:new 0 0 130.5 133;" xml:space="preserve">
<style type="text/css">
	.st0{fill:#FFFFFF;}
</style>
<g>
	<path class="st0" d="M92.9,75.3c-0.3,0-0.5,0.1-0.7,0.1c-6.5,0-13.1,0-19.6,0.1c-0.6,0-1-0.2-1.3-0.8c-4.5-8.9-9.1-17.8-13.6-26.7
		c-0.1-0.2-0.2-0.4-0.4-0.8c-0.6,1.3-1.3,2.5-1.9,3.7c-4,8-8,16-12.1,23.9c-0.2,0.4-0.4,0.7-0.9,0.7c-6.6,0-13.3,0-19.9,0
		c-0.2,0-0.3,0-0.7,0C33.6,52.2,45.3,28.9,57.2,5.4C69.1,28.8,81,52,92.9,75.3z"/>
	<path class="st0" d="M55.8,75.5c0.5,0,0.7,0,1,0c4.7,0,9.3,0,14,0c0.6,0,0.8,0.2,1.1,0.7c3.3,6.5,6.6,12.9,9.9,19.4
		c0.1,0.3,0.3,0.6,0.5,1c0.2-0.3,0.3-0.6,0.5-0.8c3.3-6.5,6.6-13,9.8-19.5c0.2-0.5,0.5-0.7,1-0.7c4.7,0,9.4,0,14.1-0.1
		c0.3,0,0.5,0,1,0c-8.8,17.4-17.5,34.6-26.3,52.1C73.5,110.2,64.7,92.9,55.8,75.5z"/>
</g>
</svg>
