<?xml version="1.0" encoding="utf-8"?>
<!-- Generator: Adobe Illustrator 22.0.1, SVG Export Plug-In . SVG Version: 6.00 Build 0)  -->
<svg version="1.1" id="Layer_1" xmlns="http://www.w3.org/2000/svg" xmlns:xlink="http://www.w3.org/1999/xlink" x="0px" y="0px"
	 viewBox="0 0 130.5 133" style="enable-background:new 0 0 130.5 133;" xml:space="preserve">
<style type="text/css">
	.st0{fill:#FFFFFF;}
</style>
<path class="st0" d="M107.9,8.7c1.2,4.4,2.4,8.9,3.6,13.3c2.9,10.5,5.8,21.1,8.7,31.6c0.2,0.6,0,1.3-0.3,1.8c-2,3.4-4,6.8-6.1,10.2
	c-0.4,0.7-0.4,1.1,0,1.8c2.1,3.4,4.1,6.7,6.1,10.2c0.3,0.5,0.4,1.3,0.2,1.8c-4,14.6-8,29.2-12.1,43.9c-0.1,0.3-0.2,0.5-0.3,1
	c-2.1-0.5-4.1-1.1-6.1-1.6c-13.3-3.5-26.6-7-39.9-10.5c-0.6-0.2-1.3-0.7-1.6-1.3c-2-3.3-4-6.7-5.9-10.1c-0.4-0.7-0.8-0.9-1.6-0.9
	c-4,0.1-8.1,0.1-12.1,0c-0.6,0-1.3-0.2-1.6-0.6C27.7,88.6,16.6,77.8,5.4,66.9c-0.1-0.1-0.3-0.3-0.4-0.4c1.1-1.2,2.2-2.3,3.4-3.5
	c10.1-9.8,20.2-19.6,30.2-29.4c0.6-0.6,1.2-0.8,2.1-0.8c3.9,0.1,7.8,0,11.7,0.1c0.9,0,1.4-0.2,1.9-1c1.9-3.4,3.9-6.8,5.9-10.1
	c0.3-0.5,0.9-0.9,1.5-1.1c14.9-3.9,29.9-7.8,44.9-11.7c0.2-0.1,0.4-0.2,0.6-0.3C107.4,8.7,107.6,8.7,107.9,8.7z M28.9,72.1
	c0.2,0.3,0.2,0.4,0.3,0.4c8.4,8.3,16.8,16.6,25.2,24.9c0.3,0.3,0.8,0.5,1.2,0.6c11.3,2.8,22.6,5.7,33.9,8.5c0.4,0.1,0.8,0.2,1.4,0.3
	c-0.3-0.6-0.5-0.9-0.7-1.3c-6.4-10.8-12.8-21.5-19.2-32.3c-0.5-0.8-1-1.1-1.9-1.1c-12.9,0-25.8,0-38.6,0
	C29.9,72.1,29.5,72.1,28.9,72.1z M101,101.1c0.1-0.4,0.2-0.6,0.2-0.8c3.2-11.1,6.4-22.1,9.5-33.2c0.1-0.5,0.1-1.1,0-1.6
	c-3.1-10.9-6.2-21.8-9.3-32.7c-0.1-0.3-0.2-0.6-0.4-1.1c-0.2,0.3-0.3,0.5-0.5,0.6c-6.6,11.1-13.2,22.2-19.8,33.2
	c-0.4,0.7-0.2,1.1,0.1,1.7c6.5,10.9,12.9,21.7,19.4,32.6C100.4,100.3,100.7,100.6,101,101.1z M28.8,60.6c0.5,0,0.8,0,1,0
	c13.1,0,26.2,0,39.3,0c0.8,0,1.2-0.2,1.6-0.9c6.5-11,13-22,19.6-33c0.2-0.3,0.3-0.5,0.4-0.9c-0.3,0-0.4,0.1-0.5,0.1
	c-11.3,2.8-22.6,5.6-33.9,8.5c-0.9,0.2-1.9,0.8-2.6,1.5c-8,7.8-15.9,15.6-23.8,23.4C29.6,59.8,29.3,60.1,28.8,60.6z"/>
</svg>
